<svg version="1.1" id="Layer_1" xmlns="http://www.w3.org/2000/svg" xmlns:xlink="http://www.w3.org/1999/xlink" x="0px" y="0px" width="16px" height="16px" viewBox="0 0 16 16" enable-background="new 0 0 16 16" xml:space="preserve">
  <g id="main">
    <g id="icon">
      <path d="M5.431,3.135L4.727,3.355L4.08,3.705L3.505,4.171L3.014,4.739L2.618,5.396L2.33,6.127L2.163,6.918L1.711,7.105L1.297,7.359L0.9289,7.673L0.6131,8.041L0.3559,8.456L0.1639,8.911L0.04395,9.4L0.002344,9.915L0.03184,10.41L0.1166,10.85L0.2518,11.24L0.4322,11.58L0.6529,11.87L0.9088,12.12L1.506,12.5L2.184,12.75L2.901,12.9L3.618,12.97L4.294,12.99L4.404,13L6.66,13L6.316,12.71L6.084,12.31L6,11.84L6,11.13L6.084,10.66L6.316,10.26L6.67,9.96L7.117,9.797L7.363,9.753L7.229,9.564L7.027,9.131L6.987,8.67L7.106,8.222L7.379,7.83L7.882,7.327L8.088,7.157L8.32,7.033L8.572,6.957L8.838,6.931L9.246,6.994L9.616,7.177L9.796,7.304L9.828,7.12L9.991,6.671L10.29,6.317L10.69,6.084L11.16,6L11.87,6L12.34,6.084L12.74,6.317L13.04,6.671L13.2,7.12L13.25,7.389L13.44,7.259L13.81,7.075L14.21,7.012L14.32,7.023L13.93,6.516L13.39,6.049L12.78,5.696L12.1,5.473L11.37,5.395L10.6,5.482L9.894,5.731L9.621,5.164L9.281,4.649L8.88,4.194L8.423,3.805L7.919,3.489L7.372,3.255L6.791,3.109L6.181,3.059zz" fill-rule="evenodd" fill="#217346"/>
    </g>
    <g id="overlay">
      <path d="M16,11.901v-0.7117c0,-0.1709,-0.1229,-0.3171,-0.2913,-0.3464l-1.0364,-0.1803c-0.0666,-0.2426,-0.1627,-0.481,-0.2881,-0.7109l0.6207,-0.8821c0.0984,-0.1398,0.0819,-0.33,-0.0389,-0.4509l-0.5033,-0.5033c-0.1209,-0.1209,-0.3111,-0.1373,-0.4509,-0.0389l-0.8569,0.6029c-0.2371,-0.1393,-0.4897,-0.2481,-0.7517,-0.3248l-0.185,-1.0632c-0.0293,-0.1684,-0.1754,-0.2913,-0.3464,-0.2913h-0.7118c-0.1709,0,-0.3171,0.1229,-0.3464,0.2913l-0.1802,1.0357c-0.2458,0.0642,-0.4875,0.1577,-0.7208,0.2819l-0.8724,-0.6138c-0.1398,-0.0984,-0.33,-0.0819,-0.4509,0.0389l-0.5033,0.5033c-0.1209,0.1209,-0.1373,0.3111,-0.0389,0.4509l0.5843,0.8304c-0.1491,0.2465,-0.2496,0.5107,-0.3301,0.785l-1.0105,0.1778C7.1226,10.811,7,10.957,7,11.1277v0.713c0,0.1707,0.1226,0.3167,0.2906,0.3462l0.978,0.1721c0.0666,0.2609,0.159,0.5173,0.2932,0.764l-0.5916,0.8368c-0.0988,0.1397,-0.0826,0.3302,0.0382,0.4513l0.5013,0.5024c0.1209,0.1211,0.3114,0.1376,0.4513,0.0391l0.8042,-0.5663c0.2554,0.1527,0.5289,0.2551,0.8134,0.3345l0.1736,0.9884c0.0295,0.1681,0.1756,0.2908,0.3463,0.2908h0.7129c0.1707,0,0.3167,-0.1226,0.3462,-0.2906l0.1722,-0.9787c0.2577,-0.0693,0.5108,-0.1638,0.7542,-0.2994l0.8465,0.5985c0.1397,0.0988,0.3302,0.0826,0.4513,-0.0382l0.5024,-0.5014c0.1211,-0.1209,0.1376,-0.3114,0.0391,-0.4513l-0.585,-0.8307c0.1429,-0.246,0.2535,-0.5079,0.3292,-0.7802l1.0411,-0.1808C15.877,12.2182,16,12.072,16,11.901zM12.2343,12.8625c-0.7309,0.422,-1.6655,0.1716,-2.0875,-0.5593c-0.422,-0.7309,-0.1716,-1.6655,0.5593,-2.0875c0.7309,-0.422,1.6655,-0.1716,2.0875,0.5593C13.2156,11.5059,12.9652,12.4405,12.2343,12.8625z" fill-rule="evenodd" fill="#797979"/>
    </g>
  </g>
</svg>